<?xml version="1.0" standalone="no"?>
<!DOCTYPE svg PUBLIC "-//W3C//DTD SVG 20010904//EN"
 "http://www.w3.org/TR/2001/REC-SVG-20010904/DTD/svg10.dtd">
<svg version="1.0" xmlns="http://www.w3.org/2000/svg"
 width="300.000000pt" height="99.000000pt" viewBox="0 0 300.000000 99.000000"
 preserveAspectRatio="xMidYMid meet">
<metadata>
Created by potrace 1.10, written by Peter Selinger 2001-2011
</metadata>
<g transform="translate(0.000000,99.000000) scale(0.100000,-0.100000)"
fill="white" stroke="none">
<path d="M2317 828 c-8 -13 -56 -97 -107 -187 l-92 -164 27 -49 c15 -27 62
-111 104 -186 l77 -137 208 0 209 0 103 184 c57 101 104 185 104 187 0 1 -31
56 -68 121 -38 65 -85 148 -106 186 l-37 67 -204 0 c-201 0 -205 0 -218 -22z
m378 -60 c-12 -70 -11 -70 -110 -29 -170 70 -170 70 -17 71 l134 0 -7 -42z
m-299 14 c5 -5 60 -30 122 -57 62 -26 114 -51 117 -55 2 -4 -33 -27 -78 -52
-45 -25 -108 -60 -139 -77 l-58 -33 0 141 c0 109 3 141 13 141 7 0 17 -4 23
-8z m375 -69 c14 -27 39 -70 54 -98 31 -55 32 -55 -61 22 l-51 43 10 40 c6 22
14 40 17 40 3 0 17 -21 31 -47z m-451 -98 l0 -125 -71 0 c-64 0 -70 2 -64 18
9 25 126 232 131 232 2 0 4 -56 4 -125z m350 -161 c0 -140 -3 -174 -12 -167
-7 6 -73 49 -145 96 -73 48 -133 89 -133 91 0 2 26 17 58 34 31 17 93 51 137
76 44 25 83 46 88 46 4 0 7 -79 7 -176z m140 94 l89 -73 -87 -87 c-48 -49 -90
-88 -94 -88 -5 0 -8 72 -8 160 0 88 2 160 5 160 3 0 46 -33 95 -72z m-490
-213 c0 -69 -2 -125 -4 -125 -5 0 -122 207 -131 233 -6 15 0 17 64 17 l71 0 0
-125z m196 -1 c62 -40 115 -77 118 -83 4 -6 -10 -15 -31 -20 -21 -6 -84 -26
-140 -45 l-103 -35 0 140 0 140 23 -12 c12 -6 72 -45 133 -85z m268 -74 c-46
-80 -63 -90 -64 -35 0 17 100 129 108 120 2 -2 -18 -40 -44 -85z m-94 -76 c6
-14 10 -30 10 -35 0 -5 -51 -9 -117 -8 l-118 0 90 33 c112 42 123 42 135 10z"/>
<path d="M215 727 c-80 -33 -105 -66 -105 -143 0 -40 5 -51 34 -79 19 -18 67
-44 108 -59 99 -37 118 -50 118 -85 0 -37 -21 -54 -68 -54 -52 0 -79 17 -87
53 -6 29 -9 30 -61 30 l-54 0 0 -32 c0 -84 79 -138 198 -138 86 0 128 15 166
61 25 29 28 39 24 86 -7 76 -58 123 -180 162 -45 15 -88 47 -88 67 0 26 39 54
75 54 37 0 75 -28 75 -55 0 -13 11 -15 58 -13 57 3 57 3 54 33 -4 38 -30 75
-71 99 -40 23 -153 31 -196 13z"/>
<path d="M1045 721 c-55 -25 -76 -52 -82 -104 -6 -50 15 -100 48 -118 21 -11
20 -11 -9 -29 -91 -56 -75 -193 28 -234 54 -22 155 -21 200 2 55 27 83 77 77
136 -4 41 -11 55 -40 82 -30 28 -33 35 -21 45 43 35 56 116 29 168 -32 63
-150 89 -230 52z m113 -83 c7 -7 12 -29 12 -50 0 -31 -5 -41 -25 -50 -34 -15
-65 12 -65 58 0 46 48 72 78 42z m14 -215 c22 -20 24 -76 2 -97 -20 -21 -73
-20 -96 1 -10 9 -18 29 -18 45 0 57 70 89 112 51z"/>
<path d="M1766 730 c-54 -17 -106 -82 -106 -135 0 -24 3 -25 55 -25 49 0 55 2
61 24 15 60 84 73 105 19 16 -44 -7 -86 -112 -203 -90 -101 -99 -115 -99 -150
l0 -40 175 0 175 0 0 45 0 45 -95 0 c-52 0 -95 3 -95 7 0 3 26 36 59 72 97
110 111 135 111 202 0 51 -4 63 -31 93 -44 51 -126 69 -203 46z"/>
<path d="M530 685 l0 -45 65 0 65 0 0 -210 0 -210 55 0 55 0 0 210 0 210 70 0
70 0 0 45 0 45 -190 0 -190 0 0 -45z"/>
<path d="M1380 445 l0 -45 100 0 100 0 0 45 0 45 -100 0 -100 0 0 -45z"/>
</g>
</svg>
